<svg id="Capa_1" enable-background="new 0 0 512 512" height="512" viewBox="0 0 512 512" width="512" xmlns="http://www.w3.org/2000/svg"><g><path d="m0 256c0-128.633 94.872-235.107 218.461-253.267 11.669 10.674 24.321 16.517 37.539 16.517s25.87-5.843 37.539-16.517c123.589 18.16 218.461 124.634 218.461 253.267 0 81.187-37.793 153.547-96.746 200.447-4.363 3.471-10.477 3.733-15.082.589-41.061-28.035-90.702-44.428-144.172-44.428-53.272 0-102.744 16.272-143.716 44.117-4.883 3.319-11.358 3.063-15.97-.622-58.705-46.91-96.314-119.114-96.314-200.103z" fill="#3d4ec6"/><path d="m460.116 215.929c0 108.623-88.056 196.679-196.679 196.679s-196.679-88.056-196.679-196.679 88.056-196.679 196.679-196.679 196.679 88.056 196.679 196.679z" fill="#5766ce"/><path d="m386 97.5v65c0 53.848-43.652 97.5-97.5 97.5-11.396 0-22.335-1.955-32.5-5.548-10.165 3.593-21.104 5.548-32.5 5.548-53.848 0-97.5-43.652-97.5-97.5v-65c0-53.848 43.652-97.5 97.5-97.5 11.396 0 22.335 1.955 32.5 5.548 10.165-3.593 21.104-5.548 32.5-5.548 53.848 0 97.5 43.652 97.5 97.5z" fill="#ffcd71"/><path d="m386 97.5v65c0 49.18-36.413 89.856-83.75 96.538-47.337-6.682-83.75-47.357-83.75-96.538v-65c0-49.18 36.413-89.856 83.75-96.538 47.337 6.682 83.75 47.358 83.75 96.538z" fill="#fff68e"/><path d="m171 174.25v10c0 13.807-11.193 25-25 25s-25-11.193-25-25v-10c0-13.807 11.193-25 25-25s25 11.193 25 25z" fill="#faa68e"/><path d="m193 347.75v91.099c0 34.139-37.093 55.312-66.525 38.013-10.678-6.276-20.86-13.303-30.475-21.011v-66.851h-42.698c-25.572 0-46.302-20.73-46.302-46.302 0-28 22.698-50.698 50.698-50.698h98c17.288 0 37.302 47.271 37.302 55.75z" fill="#f44545"/><path d="m416 369.25v41.177c0 11.514-5.696 22.269-15.185 28.79-13.921 9.567-28.835 17.792-44.557 24.49-2.565 1.093-5.151 30.06-7.758 31.071-28.689 11.122-59.882 17.222-92.5 17.222-47.457 0-91.897-12.913-130-35.417v-107.333c0-38.66 31.34-70 70-70h150c38.66 0 70 31.34 70 70z" fill="#fb5858"/><path d="m136 169.25v20c0 8.178 3.927 15.439 9.998 20-13.806-.001-24.998-11.194-24.998-25v-10c0-13.806 11.192-24.999 24.998-25-6.071 4.561-9.998 11.822-9.998 20zm230-20v-20c0-60.751-49.249-110-110-110-60.751 0-110 49.249-110 110v40c0 60.751 49.249 110 110 110 47.027 0 87.162-29.511 102.895-71.024 2.252.666 4.637 1.024 7.105 1.024 13.807 0 25-11.193 25-25v-10c0-13.807-11.193-25-25-25z" fill="#e09380"/><path d="m366 129.25v40c0 50.792-34.425 93.543-81.216 106.195-9.023 2.44-18.545 2.44-27.568 0-46.791-12.652-81.216-55.403-81.216-106.195v-40c0-55.663 41.345-101.669 95-108.985 53.655 7.316 95 53.322 95 108.985z" fill="#faa68e"/><path d="m242.994 129.465c-.112 2.876-1.86 5.435-4.499 6.584l-21.046 9.169c-.976.425-1.992.626-2.992.626-2.894 0-5.65-1.685-6.88-4.507-1.654-3.797.083-8.217 3.88-9.871l6.804-2.964-23.283-12.38c-3.657-1.944-5.046-6.485-3.101-10.143s6.486-5.046 10.143-3.102l37 19.673c2.543 1.352 4.086 4.039 3.974 6.915zm83.126-23.486c-1.945-3.658-6.486-5.046-10.143-3.102l-37 19.673c-2.542 1.352-4.085 4.038-3.973 6.914s1.86 5.435 4.499 6.584l21.046 9.169c.976.425 1.992.626 2.992.626 2.894 0 5.65-1.685 6.88-4.507 1.654-3.797-.083-8.217-3.88-9.871l-6.804-2.964 23.283-12.38c3.657-1.943 5.045-6.484 3.1-10.142z" fill="#f87b67"/><path d="m365.271 323.679-20.21 13.601c-53.24 35.829-122.88 35.829-176.121 0l-20.21-13.601c-9.897-6.661-11.865-20.418-4.23-29.585l98.219-117.944c7.43-8.923 21.133-8.923 28.563 0l98.219 117.944c7.634 9.167 5.667 22.925-4.23 29.585z" fill="#c8e2fd"/><path d="m338.495 354.611-72.576 45.837c-4.991 3.152-11.366 3.084-16.288-.174l-76.394-50.557c-6.18-4.09-8.447-12.079-5.337-18.805l76.043-164.435c5.444-11.773 22.254-11.553 27.389.358l72.927 169.154c2.923 6.781.478 14.68-5.764 18.622z" fill="#e9f3fe"/><path d="m251.17 283.12c0-43.159 3.224-85.06 9.292-125.069 4.541.873 8.724 3.808 10.87 8.784l72.927 169.154c2.923 6.78.478 14.678-5.764 18.621l-72.576 45.837c-1.938 1.224-4.085 1.962-6.275 2.217-5.539-38.335-8.474-78.367-8.474-119.544z" fill="#fff5f5"/><path d="m298.377 157.661v20c0 2.761-2.239 5-5 5s-5-2.239-5-5v-20c0-2.761 2.239-5 5-5s5 2.239 5 5zm46.568 45.355h-20c-2.761 0-5 2.239-5 5s2.239 5 5 5h20c2.761 0 5-2.239 5-5s-2.238-5-5-5zm-12.803-33.158c-1.953-1.953-5.118-1.953-7.071 0l-21.213 21.213c-1.953 1.953-1.953 5.118 0 7.071 1.953 1.953 5.118 1.953 7.071 0l21.213-21.213c1.953-1.953 1.953-5.119 0-7.071z" fill="#fff5f5"/><path d="m386 97.5v61.891c-34.637-8.182-62.135-34.837-71.522-68.992-23.602-.964-46.92-10.456-64.939-28.475l-34.709-34.709s-.799-.823-2.087-2.16c-8.989-9.323-2.504-25.014 10.447-25.055h.31c11.396 0 22.335 1.955 32.5 5.548 10.165-3.593 21.104-5.548 32.5-5.548 53.848 0 97.5 43.652 97.5 97.5z" fill="#fff68e"/><path d="m28.005 347.072-4.223-6.198c-9.329-13.693-5.791-32.355 7.902-41.684l162.031-110.39c13.693-9.329 32.355-5.791 41.684 7.902l4.223 6.198c9.329 13.693 5.791 32.355-7.902 41.684l-162.031 110.389c-13.693 9.329-32.355 5.791-41.684-7.901zm320.495 59.146h67.5v49.633c-20.214 16.205-42.94 29.405-67.5 38.926z" fill="#ffbeaa"/><path d="m272.284 216.948-40.56 27.633c-.001.001-.003.002-.004.003l-16.432 11.195c-13.693 9.329-32.355 5.791-41.684-7.902l-4.223-6.198c-9.329-13.693-5.791-32.355 7.902-41.684l12.958-8.828.001-.001 28.925-19.706c3.423-2.332 8.089-1.448 10.421 1.975 1.261 1.851 1.581 4.066 1.068 6.079l11.013-7.503c3.423-2.332 8.089-1.448 10.421 1.975 1.59 2.334 1.684 5.245.499 7.601 2.626-.241 5.301.912 6.891 3.246s1.685 5.245.499 7.601c2.626-.241 5.301.912 6.891 3.246s1.684 5.245.499 7.601c2.626-.241 5.301.912 6.891 3.246 2.332 3.423 1.447 8.089-1.976 10.421z" fill="#ffcdbe"/></g></svg>