<svg id="Layer_1" enable-background="new 0 0 150 150" height="512" viewBox="0 0 150 150" width="512" xmlns="http://www.w3.org/2000/svg"><g><path d="m75 14.489-46.456-4.568s3.936 95.374 8.567 129.642c.447 3.191 2.719 5.825 5.81 6.736l.779.232c10.325 2.546 20.943 3.7 31.574 3.431 15.155 0 25.764-1.705 31.574-3.431 3.019-.931 5.216-3.539 5.62-6.673 4.757-34.037 8.693-129.895 8.693-129.895z" fill="#e1e6e9"/><path d="m116.278 29.686h-82.556c-.547 13.303 4.862 78.977 7.957 105.794.302 2.843 2.372 5.183 5.157 5.831 18.528 4.126 37.737 4.126 56.265 0 2.818-.63 4.924-2.982 5.241-5.852 3.073-26.817 8.42-92.448 7.936-105.751" fill="#029bc5"/><ellipse cx="75" cy="9.921" fill="#ebf0f3" rx="46.456" ry="9.893"/><path d="m117.688 9.921c-1.777 1.145-3.734 1.985-5.789 2.484-6.862 2.105-19.239 3.999-36.899 3.999s-30.037-1.979-36.899-3.999c-2.055-.499-4.011-1.339-5.789-2.484 3.01-2.463 17.429-6.504 42.688-6.504s39.678 4.041 42.688 6.504z" fill="#d5d6db"/><path d="m75 23.414c-24.333 0-38.289 3.894-41.214 6.315 1.711 1.108 3.597 1.919 5.578 2.4 6.609 1.958 18.544 3.894 35.636 3.894s29.027-1.937 35.636-3.894c1.981-.48 3.867-1.292 5.578-2.4-2.925-2.379-16.839-6.315-41.214-6.315" fill="#27a2db"/><path d="m52.141 22.214h-7.978c0 1.221 0 2.505.168 3.852 2.294-.484 4.947-.926 7.936-1.326 0-.87-.042-1.712-.126-2.526" fill="#e7ebed"/><path d="m44.689 33.391c.695 14.461 1.705 33.679 2.926 52.623h7.978c-1.179-18.229-2.105-36.941-2.863-51.234-3.031-.379-5.704-.821-8.041-1.305" fill="#35afd1"/><path d="m52.267 24.74c-2.989.4-5.641.842-7.936 1.326 0 2.252.232 4.715.358 7.325 2.336.484 5.01.926 8.041 1.305-.169-3.62-.337-6.967-.463-9.956" fill="#52b5e2"/><path d="m56.266 96.034h-7.978c1.095 15.703 2.315 30.353 3.599 40.667h7.978c-1.283-10.398-2.504-25.07-3.599-40.667" fill="#35afd1"/></g></svg>