<svg id="color" height="512" viewBox="0 0 64 64" width="512" xmlns="http://www.w3.org/2000/svg"><path d="m41 11-1 50h-28l-1-50z" fill="#d8e6f1"/><path d="m16 57-1-46h22l-1 46z" fill="#b9d5ee"/><path d="m16 57-.913-42h21.826l-.913 42z" fill="#f9d467"/><path d="m20 47h-2v-40.284a.993.993 0 0 0 -.849-.988l-11.3-1.74.3-1.976 11.3 1.739a2.984 2.984 0 0 1 2.549 2.965z" fill="#e6e6e6"/><g fill="#b9e2ef"><path d="m27 20.243h6v6h-6z" transform="matrix(.707 .707 -.707 .707 25.222 -14.406)"/><path d="m19 29h6v6h-6z"/><path d="m26 41h6v6h-6z" transform="matrix(.707 .707 -.707 .707 39.607 -7.619)"/></g><rect fill="#e8bb00" height="2" rx="1" width="2" x="30" y="32"/><rect fill="#e8bb00" height="2" rx="1" width="2" x="23" y="18"/><rect fill="#e8bb00" height="2" rx="1" width="2" x="21" y="51"/><path d="m50 43a7.955 7.955 0 0 0 -4 1.079 7.99 7.99 0 0 0 -12 6.921c0 4.418 3.582 10 8 10a6.3 6.3 0 0 0 4-1.591 6.3 6.3 0 0 0 4 1.591c4.418 0 8-5.582 8-10a8 8 0 0 0 -8-8z" fill="#c1272d"/><path d="m54 36a0 0 0 0 1 0 0 8 8 0 0 1 -8 8 0 0 0 0 1 0 0 8 8 0 0 1 8-8z" fill="#557c3e"/></svg>