<svg height="435pt" viewBox="-103 0 435 435.01" width="435pt" xmlns="http://www.w3.org/2000/svg"><path d="m6.003906 76.351562 20.230469 352.660157h57.742187l-6.859374-352.660157zm0 0" fill="#89aadb"/><path d="m150.046875 76.351562-6.855469 352.660157h57.738282l20.230468-352.660157zm0 0" fill="#4b67b0"/><path d="m77.117188 76.351562 6.859374 352.660157h59.214844l6.855469-352.660157zm0 0" fill="#6287c5"/><path d="m200.929688 435.011719h-174.695313c-3.179687 0-5.808594-2.480469-5.988281-5.65625l-20.230469-352.660157c-.09375-1.648437.492187-3.261718 1.628906-4.460937 1.132813-1.203125 2.707031-1.878906 4.359375-1.878906h215.160156c1.652344 0 3.226563.679687 4.359376 1.878906 1.136718 1.199219 1.722656 2.8125 1.628906 4.460937l-20.230469 352.660157c-.183594 3.175781-2.8125 5.65625-5.992187 5.65625zm-169.027344-12h163.363281l19.542969-340.660157h-202.449219zm0 0" fill="#1c2d6b"/><path d="m161.863281 401.660156h-96.5625c-26.15625 0-47.816406-20.453125-49.316406-46.566406l-15.96875-278.398438c-.09375-1.648437.492187-3.261718 1.628906-4.460937 1.132813-1.203125 2.707031-1.878906 4.359375-1.878906h215.160156c1.652344 0 3.226563.679687 4.359376 1.878906 1.136718 1.199219 1.722656 2.8125 1.628906 4.460937l-15.972656 278.398438-5.988282-.34375 5.988282.34375c-1.496094 26.113281-23.160157 46.566406-49.316407 46.566406zm-149.503906-319.308594 15.605469 272.054688c1.132812 19.769531 17.535156 35.253906 37.332031 35.253906h96.566406c19.800781 0 36.203125-15.484375 37.332031-35.253906l15.609376-272.054688zm0 0" fill="#1c2d6b"/><path d="m81.5 354.75-4.382812-218.101562h-67.65625l12.515624 218.101562c1.316407 22.964844 20.320313 40.910156 43.324219 40.910156h31.371094c-8.054687 0-14.710937-17.945312-15.171875-40.910156zm0 0" fill="#ef7f72"/><path d="m150.046875 136.648438-4.378906 218.101562c-.464844 22.964844-7.121094 40.910156-15.175781 40.910156h31.371093c23.003907 0 42.007813-17.945312 43.328125-40.910156l12.511719-218.101562zm0 0" fill="#e8383b"/><path d="m145.667969 354.75 4.378906-218.101562h-72.929687l4.382812 218.101562c.460938 22.964844 7.117188 40.910156 15.171875 40.910156h33.820313c8.054687 0 14.710937-17.945312 15.175781-40.910156zm0 0" fill="#e95947"/><path d="m161.863281 401.660156h-96.5625c-26.15625 0-47.816406-20.453125-49.316406-46.566406l-12.511719-218.101562c-.09375-1.644532.492188-3.261719 1.628906-4.460938 1.132813-1.203125 2.710938-1.878906 4.359376-1.878906h208.238281c1.652343 0 3.230469.679687 4.363281 1.878906s1.722656 2.816406 1.628906 4.460938l-12.511718 218.101562c-1.496094 26.113281-23.160157 46.566406-49.316407 46.566406zm-146.042969-259.011718 12.144532 211.757812c1.136718 19.769531 17.535156 35.253906 37.335937 35.253906h96.5625c19.804688 0 36.203125-15.484375 37.335938-35.253906l12.148437-211.757812zm0 0" fill="#1c2d6b"/><path d="m222.394531 6.003906h-35.164062c-16.722657 0-31.253907 11.476563-35.128907 27.742188l-10.144531 42.605468h24.6875l8.105469-35.664062c1.773438-7.808594 8.714844-13.347656 16.722656-13.347656h30.921875zm0 0" fill="#65bc49"/><path d="m166.644531 82.351562h-24.6875c-1.835937 0-3.566406-.839843-4.707031-2.28125-1.136719-1.441406-1.554688-3.324218-1.128906-5.109374l10.144531-42.605469c4.539063-19.050781 21.382813-32.355469 40.964844-32.355469h35.164062c3.3125 0 6 2.6875 6 6v21.335938c0 3.3125-2.6875 6-6 6h-30.917969c-5.242187 0-9.714843 3.566406-10.875 8.679687l-8.105468 35.664063c-.625 2.730468-3.050782 4.671874-5.851563 4.671874zm-17.085937-12h12.296875l7.042969-30.992187c2.414062-10.613281 11.695312-18.023437 22.578124-18.023437h24.917969v-9.332032h-29.164062c-14 0-26.046875 9.511719-29.289063 23.132813zm0 0" fill="#1c2d6b"/><path d="m135.449219 172.578125c12.5625 0 22.746093 23.640625 22.746093 52.796875 0 29.160156-10.183593 52.796875-22.746093 52.796875 29.160156 0 52.796875-23.636719 52.796875-52.796875 0-29.15625-23.636719-52.796875-52.796875-52.796875zm0 0" fill="#d3ba2a"/><path d="m112.703125 225.375c0-29.15625 10.1875-52.796875 22.746094-52.796875-29.15625 0-52.792969 23.640625-52.792969 52.796875 0 29.160156 23.636719 52.796875 52.792969 52.796875-12.558594.003906-22.746094-23.636719-22.746094-52.796875zm0 0" fill="#ede27e"/><path d="m158.195312 225.375c0-29.15625-10.183593-52.796875-22.746093-52.796875s-22.746094 23.640625-22.746094 52.796875c0 29.160156 10.183594 52.796875 22.746094 52.796875s22.746093-23.636719 22.746093-52.796875zm0 0" fill="#eee045"/><path d="m135.449219 284.175781c-32.417969 0-58.792969-26.378906-58.792969-58.796875 0-32.421875 26.375-58.796875 58.792969-58.796875 32.421875 0 58.796875 26.375 58.796875 58.796875 0 32.417969-26.375 58.796875-58.796875 58.796875zm0-105.597656c-25.800781 0-46.792969 20.992187-46.792969 46.796875s20.992188 46.796875 46.792969 46.796875c25.804687 0 46.796875-20.992187 46.796875-46.796875s-20.992188-46.796875-46.796875-46.796875zm0 0" fill="#1c2d6b"/><path d="m167.714844 225.375c0 17.820312-14.445313 32.265625-32.265625 32.265625-17.816407 0-32.261719-14.445313-32.261719-32.265625 0-17.816406 14.445312-32.261719 32.261719-32.261719 17.820312 0 32.265625 14.445313 32.265625 32.261719zm0 0" fill="#e95947"/><g fill="#1c2d6b"><path d="m135.449219 263.640625c-21.097657 0-38.261719-17.164063-38.261719-38.265625 0-21.097656 17.164062-38.265625 38.261719-38.265625 21.097656 0 38.265625 17.167969 38.265625 38.265625 0 21.101562-17.164063 38.265625-38.265625 38.265625zm0-64.527344c-14.480469 0-26.261719 11.78125-26.261719 26.265625 0 14.480469 11.78125 26.261719 26.261719 26.261719 14.484375 0 26.265625-11.78125 26.265625-26.261719 0-14.484375-11.78125-26.265625-26.265625-26.265625zm0 0"/><path d="m135.449219 248.074219c-3.3125 0-6-2.683594-6-6v-3.410157c0-3.3125 2.6875-6 6-6 3.316406 0 6 2.6875 6 6v3.410157c0 3.316406-2.683594 6-6 6zm0 0"/><path d="m135.449219 218.085938c-3.3125 0-6-2.6875-6-6v-3.410157c0-3.3125 2.6875-6 6-6 3.316406 0 6 2.6875 6 6v3.410157c0 3.3125-2.683594 6-6 6zm0 0"/><path d="m122.160156 231.378906h-3.410156c-3.3125 0-6-2.6875-6-6 0-3.316406 2.6875-6 6-6h3.410156c3.316406 0 6 2.683594 6 6 0 3.3125-2.683594 6-6 6zm0 0"/><path d="m152.152344 231.378906h-3.410156c-3.3125 0-6-2.6875-6-6 0-3.316406 2.6875-6 6-6h3.410156c3.3125 0 6 2.683594 6 6 0 3.3125-2.6875 6-6 6zm0 0"/></g><path d="m98.128906 362.457031c8.601563 0 16.082032-11.074219 19.941406-27.4375.339844-1.441406.664063-2.925781.949219-4.453125l16.433594 16.433594c-9.5625 9.558594-22.757813 15.457031-37.324219 15.457031zm0 0" fill="#d3ba2a"/><path d="m98.128906 362.457031c-29.160156 0-52.804687-23.648437-52.789062-52.792969-.015625-14.578124 5.898437-27.761718 15.457031-37.320312l16.433594 16.433594c-1.203125 6.40625-1.851563 13.476562-1.851563 20.886718 0 7.410157.648438 14.480469 1.851563 20.886719.28125 1.527344.609375 3.011719.949219 4.457031 3.855468 16.363282 11.351562 27.449219 19.949218 27.449219zm0 0" fill="#ede27e"/><path d="m98.128906 362.457031c-8.597656 0-16.09375-11.089843-19.953125-27.449219-.339843-1.445312-.664062-2.929687-.945312-4.457031-1.203125-6.40625-1.855469-13.480469-1.855469-20.890625 0-7.40625.652344-14.480468 1.855469-20.886718l41.789062 41.789062c-.285156 1.53125-.609375 3.011719-.949219 4.457031-3.859374 16.363281-11.339843 27.4375-19.941406 27.4375zm0 0" fill="#eee045"/><path d="m98.128906 368.457031c-15.703125 0-30.46875-6.117187-41.578125-17.222656s-17.21875-25.871094-17.210937-41.570313c-.015625-15.683593 6.097656-30.449218 17.214844-41.5625 2.34375-2.34375 6.140624-2.34375 8.484374 0l74.65625 74.65625c2.34375 2.34375 2.34375 6.140626 0 8.484376-11.101562 11.101562-25.863281 17.214843-41.566406 17.214843zm-37.066406-87.363281c-6.316406 8.15625-9.734375 18.101562-9.726562 28.5625-.003907 12.503906 4.859374 24.25 13.699218 33.089844 8.839844 8.84375 20.59375 13.710937 33.09375 13.710937 10.472656 0 20.417969-3.417969 28.566406-9.726562zm0 0" fill="#1c2d6b"/><path d="m120.941406 332.488281c-.90625.90625-1.851562 1.742188-2.871094 2.535157-5.484374 4.328124-12.414062 6.902343-19.941406 6.902343-7.523437 0-14.480468-2.574219-19.953125-6.917969-1.015625-.792968-1.964843-1.625-2.867187-2.53125-5.84375-5.839843-9.449219-13.917968-9.449219-22.824218 0-8.910156 3.589844-16.972656 9.433594-22.8125zm0 0" fill="#e95947"/><path d="m98.128906 347.921875c-8.59375 0-17.003906-2.917969-23.683594-8.214844-1.171874-.910156-2.289062-1.898437-3.378906-2.988281-7.230468-7.222656-11.210937-16.835938-11.210937-27.066406 0-10.230469 3.976562-19.839844 11.191406-27.054688 2.34375-2.34375 6.140625-2.34375 8.484375 0l45.652344 45.648438c2.339844 2.34375 2.34375 6.140625 0 8.484375-1.078125 1.078125-2.199219 2.070312-3.429688 3.027343-6.761718 5.332032-14.941406 8.164063-23.625 8.164063zm-22.351562-52.113281c-2.550782 4.113281-3.917969 8.871094-3.917969 13.839844 0 7.027343 2.730469 13.625 7.6875 18.582031.734375.730469 1.488281 1.398437 2.3125 2.039062 4.613281 3.660157 10.375 5.652344 16.269531 5.652344 4.972656 0 9.699219-1.351563 13.832032-3.929687zm0 0" fill="#1c2d6b"/><path d="m86.710938 327.070312c-1.535157 0-3.070313-.585937-4.242188-1.757812-2.34375-2.34375-2.34375-6.140625 0-8.484375l11.40625-11.40625c2.34375-2.34375 6.144531-2.34375 8.484375 0 2.34375 2.34375 2.34375 6.140625 0 8.484375l-11.40625 11.40625c-1.171875 1.171875-2.707031 1.757812-4.242187 1.757812zm0 0" fill="#1c2d6b"/><path d="m73.6875 293.734375 8.484375-8.484375 40.363281 40.359375-8.484375 8.488281zm0 0" fill="#1c2d6b"/><path d="m51.117188 76.351562h12v54.296876h-12zm0 0" fill="#1c2d6b"/><path d="m77.117188 182.648438h-40v-40l20-12 20 12zm0 0" fill="#65bc49"/><path d="m77.117188 188.648438h-40c-3.3125 0-6-2.683594-6-6v-40c0-2.105469 1.105468-4.058594 2.914062-5.140626l20-12c1.898438-1.140624 4.273438-1.140624 6.171875 0l20 12c1.808594 1.082032 2.914063 3.035157 2.914063 5.140626v40c0 3.316406-2.6875 6-6 6zm-34-12h28v-30.601563l-14-8.398437-14 8.398437zm0 0" fill="#1c2d6b"/></svg>